<?xml version="1.0" encoding="UTF-8"?>
<svg id="Layer_4" data-name="Layer 4" xmlns="http://www.w3.org/2000/svg" viewBox="0 0 598.36 594.39">
  <path d="M570.97,175.06C463.63-64.55,112.85-55.32,20.23,190.47c-93.02,246.29,161.76,484.38,402.04,376.7,61.93-27.63,111.34-74.19,142.04-133.28-1.06-3.26-2.54-6.85-4.33-10.56,0-.01-.01-.02-.02-.04-2.73-7.39-8.02-15.58-15.35-24.07-.39-.47-.79-.93-1.19-1.38-.27-.32-.56-.65-.85-.96-.15-.18-.31-.35-.48-.53h0c-2.84-3.14-5.84-6.18-8.9-9.13-4.59-4.39-9.43-8.62-14.37-12.66-.01-.01-.02-.01-.02-.01-1.58-1.29-3.2-2.56-4.81-3.83-.02-.02-.04-.04-.07-.05-3.33-2.59-6.65-5.05-10.13-7.55-.06-.05-.13-.09-.19-.13-4.36-3.09-8.97-6.23-13.58-9.17-4.97-3.2-10.04-6.27-15.17-9.2-.9-.52-1.8-1.03-2.7-1.53-.25-.15-.5-.28-.74-.42-10.84-6.04-21.99-11.56-33.4-16.43-.21-.1-.43-.19-.64-.27-.68-.29-1.36-.58-2.04-.86-17.14-7.08-34.8-13.04-52.49-18.46-18.47-6.13-67.75-17.99-74.87-18.95h-.04c-1.21-.14-9.06-.78-8.65,5.95h0s9.04,27.83,9.04,27.83l-39.18-28.46c-6.31-4.58-15.02-4.58-21.33,0l-39.17,28.46,14.94-46.01c2.39-7.28-.13-15.41-6.21-20.07l-39.55-28.73h48.44c7.63,.02,14.36-4.75,17.04-11.87l15.18-46.72,14.96,46.06,.36,1.01c2.75,7,9.38,11.52,16.89,11.52h48.43l-23.04,16.74h-.01c-6.21,7.07,4.91,10.18,4.91,10.18h0c11.12,2.26,28.86,6.44,42.59,10.11h.01c18.63,4.95,37.27,10.55,55.54,16.86,.01,0,.03,0,.05,.02,13.08,4.55,26.12,9.39,38.77,15.05,4.86,2.14,9.65,4.39,14.41,6.73,4.69,2.3,9.35,4.71,13.93,7.2,.33,.17,.66,.35,.99,.53,.14,.08,.27,.15,.41,.23,.84,.46,1.69,.93,2.52,1.4,1,.54,2.02,1.13,3.02,1.7,.17,.09,.33,.19,.5,.28,.67,.38,1.33,.76,1.99,1.15,.11,.07,.23,.13,.34,.2,12.25,7.1,24.1,14.92,35.39,23.46,.01,0,.01,.01,.02,.01,1.55,1.18,3.07,2.34,4.58,3.55,.58,.44,1.16,.9,1.73,1.36t.02,.02c1.1,.88,2.2,1.77,3.28,2.67,6.4,5.25,12.43,10.67,18.21,16.42,1.48,1.46,2.95,2.96,4.36,4.47,1.54,1.6,3.01,3.21,4.47,4.85,.35,.38,.69,.77,1.02,1.16,4.97,5.6,9.3,11.36,13.41,17.8,23.61-70.49,19.73-146.98-11.57-215.77Zm-9.89,140.94c-45.39-37.8-112.56-66.45-170.55-82.17l14.22-10.33c6.36-4.62,9.02-12.73,6.61-20.23-2.42-7.53-9.36-12.59-17.27-12.59h-90.42l-27.92-85.93c-2.41-7.52-9.3-12.57-17.21-12.6-7.93-.03-14.89,5.02-17.33,12.57l-27.93,85.96H122.86c-7.91,0-14.85,5.06-17.27,12.59-2.41,7.5,.25,15.62,6.62,20.24l73.14,53.14-27.94,86c-2.34,7.22,.13,15.32,6.19,19.98,6.32,4.86,15.23,4.98,21.72,.29l73.16-53.14,73.18,53.17c3.16,2.28,6.9,3.41,10.63,3.41,12.11,.22,21.11-12.25,17.25-23.71,0,0-9.05-27.85-9.05-27.85,18.99,5.17,41.38,12.01,63.43,20.51,36.77,13.49,91.94,47.55,110.27,76.55-62.05,105.91-202.83,153.79-317.24,108.14C-64.4,431.63,9.77,39.1,298.39,35.45c150.06-1.3,274.35,130.63,262.7,280.55Z" style="fill: #131525;"/>
</svg>